
        <svg width="27" height="60" viewBox="0 0 27 60" fill="none" xmlns="http://www.w3.org/2000/svg">
            <g clip-path="url(#clip0_0_667)">
                <g filter="url(#filter0_d_0_667)">
                    <path d="M0 12.7679C4.32577 7.84378 6.10288 5.01798 11.6781 0.0344789C16.0636 0.0196323 19.3739 -0.292146 24.9292 1.18261C25.198 18.9738 25.208 37.7795 25.4768 55.5706C25.4768 55.5706 10.4834 56.3228 10.7223 56.7583C9.58739 42.7382 10.3291 27.1295 10.9115 13.0747L0 12.7679Z" fill="#F2EBE1" />
                    <g  opacity="0.18">
                        <path d="M25.4768 55.5757C25.208 37.7845 25.198 18.9788 24.9292 1.18768L21.6089 55.7885C23.8141 55.6598 25.4768 55.5757 25.4768 55.5757Z" fill="#1E282E" />
                    </g>
                    <g  opacity="0.18">
                        <path d="M12.2107 10.5163L0 12.768L10.9115 13.0798L12.2107 10.5163Z" fill="#1E282E" />
                    </g>
                    <path d="M22.8335 57.2237C22.8186 50.9832 22.8087 44.7427 22.7937 38.5021C17.6217 38.3883 12.4148 38.809 7.3175 39.8037C7.45689 45.7176 8.03432 51.963 8.58686 58.456C13.3756 58.5747 18.1693 58.3174 22.8286 57.2237H22.8335Z" fill="#98C0E3" />
                    <mask id="mask0_0_667"  maskUnits="userSpaceOnUse" x="7" y="38" width="16" height="21">
                        <path d="M22.8335 57.2237C22.8186 50.9832 22.8087 44.7427 22.7937 38.5021C17.6217 38.3883 12.4148 38.809 7.3175 39.8037C7.45689 45.7176 8.03432 51.963 8.58686 58.456C13.3756 58.5747 18.1693 58.3174 22.8286 57.2237H22.8335Z" fill="white" />
                    </mask>
                    <g mask="url(#mask0_0_667)">
                        <path d="M7.63609 39.6849C7.91101 39.6849 8.13388 39.4633 8.13388 39.19C8.13388 38.9167 7.91101 38.6951 7.63609 38.6951C7.36117 38.6951 7.13831 38.9167 7.13831 39.19C7.13831 39.4633 7.36117 39.6849 7.63609 39.6849Z" fill="#1E282E" />
                        <path d="M9.95079 39.6849C10.2257 39.6849 10.4486 39.4633 10.4486 39.19C10.4486 38.9167 10.2257 38.6951 9.95079 38.6951C9.67587 38.6951 9.453 38.9167 9.453 39.19C9.453 39.4633 9.67587 39.6849 9.95079 39.6849Z" fill="#1E282E" />
                        <path d="M12.2605 39.6849C12.5355 39.6849 12.7583 39.4633 12.7583 39.19C12.7583 38.9167 12.5355 38.6951 12.2605 38.6951C11.9856 38.6951 11.7628 38.9167 11.7628 39.19C11.7628 39.4633 11.9856 39.6849 12.2605 39.6849Z" fill="#1E282E" />
                        <path d="M14.5752 39.6849C14.8502 39.6849 15.073 39.4633 15.073 39.19C15.073 38.9167 14.8502 38.6951 14.5752 38.6951C14.3003 38.6951 14.0775 38.9167 14.0775 39.19C14.0775 39.4633 14.3003 39.6849 14.5752 39.6849Z" fill="#1E282E" />
                        <path d="M16.885 39.6849C17.1599 39.6849 17.3828 39.4633 17.3828 39.19C17.3828 38.9167 17.1599 38.6951 16.885 38.6951C16.6101 38.6951 16.3872 38.9167 16.3872 39.19C16.3872 39.4633 16.6101 39.6849 16.885 39.6849Z" fill="#1E282E" />
                        <path d="M8.79094 41.9861C9.06586 41.9861 9.28873 41.7645 9.28873 41.4912C9.28873 41.2179 9.06586 40.9963 8.79094 40.9963C8.51602 40.9963 8.29315 41.2179 8.29315 41.4912C8.29315 41.7645 8.51602 41.9861 8.79094 41.9861Z" fill="#1E282E" />
                        <path d="M11.1057 41.9861C11.3806 41.9861 11.6035 41.7645 11.6035 41.4912C11.6035 41.2179 11.3806 40.9963 11.1057 40.9963C10.8308 40.9963 10.6079 41.2179 10.6079 41.4912C10.6079 41.7645 10.8308 41.9861 11.1057 41.9861Z" fill="#1E282E" />
                        <path d="M7.63609 44.2824C7.91101 44.2824 8.13388 44.0608 8.13388 43.7875C8.13388 43.5142 7.91101 43.2926 7.63609 43.2926C7.36117 43.2926 7.13831 43.5142 7.13831 43.7875C7.13831 44.0608 7.36117 44.2824 7.63609 44.2824Z" fill="#1E282E" />
                        <path d="M9.95079 44.2824C10.2257 44.2824 10.4486 44.0608 10.4486 43.7875C10.4486 43.5142 10.2257 43.2926 9.95079 43.2926C9.67587 43.2926 9.453 43.5142 9.453 43.7875C9.453 44.0608 9.67587 44.2824 9.95079 44.2824Z" fill="#1E282E" />
                        <path d="M12.2605 44.2824C12.5355 44.2824 12.7583 44.0608 12.7583 43.7875C12.7583 43.5142 12.5355 43.2926 12.2605 43.2926C11.9856 43.2926 11.7628 43.5142 11.7628 43.7875C11.7628 44.0608 11.9856 44.2824 12.2605 44.2824Z" fill="#1E282E" />
                        <path d="M14.5752 44.2824C14.8502 44.2824 15.073 44.0608 15.073 43.7875C15.073 43.5142 14.8502 43.2926 14.5752 43.2926C14.3003 43.2926 14.0775 43.5142 14.0775 43.7875C14.0775 44.0608 14.3003 44.2824 14.5752 44.2824Z" fill="#1E282E" />
                        <path d="M16.885 44.2824C17.1599 44.2824 17.3828 44.0608 17.3828 43.7875C17.3828 43.5142 17.1599 43.2926 16.885 43.2926C16.6101 43.2926 16.3872 43.5142 16.3872 43.7875C16.3872 44.0608 16.6101 44.2824 16.885 44.2824Z" fill="#1E282E" />
                        <path d="M13.4154 41.9861C13.6903 41.9861 13.9132 41.7645 13.9132 41.4912C13.9132 41.2179 13.6903 40.9963 13.4154 40.9963C13.1405 40.9963 12.9176 41.2179 12.9176 41.4912C12.9176 41.7645 13.1405 41.9861 13.4154 41.9861Z" fill="#1E282E" />
                        <path d="M15.7301 41.9861C16.0051 41.9861 16.2279 41.7645 16.2279 41.4912C16.2279 41.2179 16.0051 40.9963 15.7301 40.9963C15.4552 40.9963 15.2324 41.2179 15.2324 41.4912C15.2324 41.7645 15.4552 41.9861 15.7301 41.9861Z" fill="#1E282E" />
                        <path d="M18.0398 41.9861C18.3148 41.9861 18.5376 41.7645 18.5376 41.4912C18.5376 41.2179 18.3148 40.9963 18.0398 40.9963C17.7649 40.9963 17.5421 41.2179 17.5421 41.4912C17.5421 41.7645 17.7649 41.9861 18.0398 41.9861Z" fill="#1E282E" />
                        <path d="M8.79094 46.5836C9.06586 46.5836 9.28873 46.362 9.28873 46.0887C9.28873 45.8154 9.06586 45.5938 8.79094 45.5938C8.51602 45.5938 8.29315 45.8154 8.29315 46.0887C8.29315 46.362 8.51602 46.5836 8.79094 46.5836Z" fill="#1E282E" />
                        <path d="M11.1057 46.5836C11.3806 46.5836 11.6035 46.362 11.6035 46.0887C11.6035 45.8154 11.3806 45.5938 11.1057 45.5938C10.8308 45.5938 10.6079 45.8154 10.6079 46.0887C10.6079 46.362 10.8308 46.5836 11.1057 46.5836Z" fill="#1E282E" />
                        <path d="M7.63609 48.8799C7.91101 48.8799 8.13388 48.6583 8.13388 48.385C8.13388 48.1117 7.91101 47.8901 7.63609 47.8901C7.36117 47.8901 7.13831 48.1117 7.13831 48.385C7.13831 48.6583 7.36117 48.8799 7.63609 48.8799Z" fill="#1E282E" />
                        <path d="M9.95079 48.8799C10.2257 48.8799 10.4486 48.6583 10.4486 48.385C10.4486 48.1117 10.2257 47.8901 9.95079 47.8901C9.67587 47.8901 9.453 48.1117 9.453 48.385C9.453 48.6583 9.67587 48.8799 9.95079 48.8799Z" fill="#1E282E" />
                        <path d="M12.2605 48.8799C12.5355 48.8799 12.7583 48.6583 12.7583 48.385C12.7583 48.1117 12.5355 47.8901 12.2605 47.8901C11.9856 47.8901 11.7628 48.1117 11.7628 48.385C11.7628 48.6583 11.9856 48.8799 12.2605 48.8799Z" fill="#1E282E" />
                        <path d="M14.5752 48.8799C14.8502 48.8799 15.073 48.6583 15.073 48.385C15.073 48.1117 14.8502 47.8901 14.5752 47.8901C14.3003 47.8901 14.0775 48.1117 14.0775 48.385C14.0775 48.6583 14.3003 48.8799 14.5752 48.8799Z" fill="#1E282E" />
                        <path d="M16.885 48.8799C17.1599 48.8799 17.3828 48.6583 17.3828 48.385C17.3828 48.1117 17.1599 47.8901 16.885 47.8901C16.6101 47.8901 16.3872 48.1117 16.3872 48.385C16.3872 48.6583 16.6101 48.8799 16.885 48.8799Z" fill="#1E282E" />
                        <path d="M13.4154 46.5836C13.6903 46.5836 13.9132 46.362 13.9132 46.0887C13.9132 45.8154 13.6903 45.5938 13.4154 45.5938C13.1405 45.5938 12.9176 45.8154 12.9176 46.0887C12.9176 46.362 13.1405 46.5836 13.4154 46.5836Z" fill="#1E282E" />
                        <path d="M15.7301 46.5836C16.0051 46.5836 16.2279 46.362 16.2279 46.0887C16.2279 45.8154 16.0051 45.5938 15.7301 45.5938C15.4552 45.5938 15.2324 45.8154 15.2324 46.0887C15.2324 46.362 15.4552 46.5836 15.7301 46.5836Z" fill="#1E282E" />
                        <path d="M18.0398 46.5836C18.3148 46.5836 18.5376 46.362 18.5376 46.0887C18.5376 45.8154 18.3148 45.5938 18.0398 45.5938C17.7649 45.5938 17.5421 45.8154 17.5421 46.0887C17.5421 46.362 17.7649 46.5836 18.0398 46.5836Z" fill="#1E282E" />
                        <path d="M8.79094 51.1762C9.06586 51.1762 9.28873 50.9546 9.28873 50.6813C9.28873 50.408 9.06586 50.1864 8.79094 50.1864C8.51602 50.1864 8.29315 50.408 8.29315 50.6813C8.29315 50.9546 8.51602 51.1762 8.79094 51.1762Z" fill="#1E282E" />
                        <path d="M11.1057 51.1762C11.3806 51.1762 11.6035 50.9546 11.6035 50.6813C11.6035 50.408 11.3806 50.1864 11.1057 50.1864C10.8308 50.1864 10.6079 50.408 10.6079 50.6813C10.6079 50.9546 10.8308 51.1762 11.1057 51.1762Z" fill="#1E282E" />
                        <path d="M7.63609 53.4774C7.91101 53.4774 8.13388 53.2558 8.13388 52.9825C8.13388 52.7092 7.91101 52.4876 7.63609 52.4876C7.36117 52.4876 7.13831 52.7092 7.13831 52.9825C7.13831 53.2558 7.36117 53.4774 7.63609 53.4774Z" fill="#1E282E" />
                        <path d="M9.95079 53.4774C10.2257 53.4774 10.4486 53.2558 10.4486 52.9825C10.4486 52.7092 10.2257 52.4876 9.95079 52.4876C9.67587 52.4876 9.453 52.7092 9.453 52.9825C9.453 53.2558 9.67587 53.4774 9.95079 53.4774Z" fill="#1E282E" />
                        <path d="M12.2605 53.4774C12.5355 53.4774 12.7583 53.2558 12.7583 52.9825C12.7583 52.7092 12.5355 52.4876 12.2605 52.4876C11.9856 52.4876 11.7628 52.7092 11.7628 52.9825C11.7628 53.2558 11.9856 53.4774 12.2605 53.4774Z" fill="#1E282E" />
                        <path d="M14.5752 53.4774C14.8502 53.4774 15.073 53.2558 15.073 52.9825C15.073 52.7092 14.8502 52.4876 14.5752 52.4876C14.3003 52.4876 14.0775 52.7092 14.0775 52.9825C14.0775 53.2558 14.3003 53.4774 14.5752 53.4774Z" fill="#1E282E" />
                        <path d="M16.885 53.4774C17.1599 53.4774 17.3828 53.2558 17.3828 52.9825C17.3828 52.7092 17.1599 52.4876 16.885 52.4876C16.6101 52.4876 16.3872 52.7092 16.3872 52.9825C16.3872 53.2558 16.6101 53.4774 16.885 53.4774Z" fill="#1E282E" />
                        <path d="M13.4154 51.1762C13.6903 51.1762 13.9132 50.9546 13.9132 50.6813C13.9132 50.408 13.6903 50.1864 13.4154 50.1864C13.1405 50.1864 12.9176 50.408 12.9176 50.6813C12.9176 50.9546 13.1405 51.1762 13.4154 51.1762Z" fill="#1E282E" />
                        <path d="M15.7301 51.1762C16.0051 51.1762 16.2279 50.9546 16.2279 50.6813C16.2279 50.408 16.0051 50.1864 15.7301 50.1864C15.4552 50.1864 15.2324 50.408 15.2324 50.6813C15.2324 50.9546 15.4552 51.1762 15.7301 51.1762Z" fill="#1E282E" />
                        <path d="M18.0398 51.1762C18.3148 51.1762 18.5376 50.9546 18.5376 50.6813C18.5376 50.408 18.3148 50.1864 18.0398 50.1864C17.7649 50.1864 17.5421 50.408 17.5421 50.6813C17.5421 50.9546 17.7649 51.1762 18.0398 51.1762Z" fill="#1E282E" />
                        <path d="M8.79094 55.7736C9.06586 55.7736 9.28873 55.5521 9.28873 55.2788C9.28873 55.0054 9.06586 54.7839 8.79094 54.7839C8.51602 54.7839 8.29315 55.0054 8.29315 55.2788C8.29315 55.5521 8.51602 55.7736 8.79094 55.7736Z" fill="#1E282E" />
                        <path d="M11.1057 55.7736C11.3806 55.7736 11.6035 55.5521 11.6035 55.2788C11.6035 55.0054 11.3806 54.7839 11.1057 54.7839C10.8308 54.7839 10.6079 55.0054 10.6079 55.2788C10.6079 55.5521 10.8308 55.7736 11.1057 55.7736Z" fill="#1E282E" />
                        <path d="M7.63609 58.0749C7.91101 58.0749 8.13388 57.8533 8.13388 57.58C8.13388 57.3067 7.91101 57.0851 7.63609 57.0851C7.36117 57.0851 7.13831 57.3067 7.13831 57.58C7.13831 57.8533 7.36117 58.0749 7.63609 58.0749Z" fill="#1E282E" />
                        <path d="M9.95079 58.0749C10.2257 58.0749 10.4486 57.8533 10.4486 57.58C10.4486 57.3067 10.2257 57.0851 9.95079 57.0851C9.67587 57.0851 9.453 57.3067 9.453 57.58C9.453 57.8533 9.67587 58.0749 9.95079 58.0749Z" fill="#1E282E" />
                        <path d="M12.2605 58.0749C12.5355 58.0749 12.7583 57.8533 12.7583 57.58C12.7583 57.3067 12.5355 57.0851 12.2605 57.0851C11.9856 57.0851 11.7628 57.3067 11.7628 57.58C11.7628 57.8533 11.9856 58.0749 12.2605 58.0749Z" fill="#1E282E" />
                        <path d="M14.5752 58.0749C14.8502 58.0749 15.073 57.8533 15.073 57.58C15.073 57.3067 14.8502 57.0851 14.5752 57.0851C14.3003 57.0851 14.0775 57.3067 14.0775 57.58C14.0775 57.8533 14.3003 58.0749 14.5752 58.0749Z" fill="#1E282E" />
                        <path d="M16.885 58.0749C17.1599 58.0749 17.3828 57.8533 17.3828 57.58C17.3828 57.3067 17.1599 57.0851 16.885 57.0851C16.6101 57.0851 16.3872 57.3067 16.3872 57.58C16.3872 57.8533 16.6101 58.0749 16.885 58.0749Z" fill="#1E282E" />
                        <path d="M13.4154 55.7736C13.6903 55.7736 13.9132 55.5521 13.9132 55.2788C13.9132 55.0054 13.6903 54.7839 13.4154 54.7839C13.1405 54.7839 12.9176 55.0054 12.9176 55.2788C12.9176 55.5521 13.1405 55.7736 13.4154 55.7736Z" fill="#1E282E" />
                        <path d="M15.7301 55.7736C16.0051 55.7736 16.2279 55.5521 16.2279 55.2788C16.2279 55.0054 16.0051 54.7839 15.7301 54.7839C15.4552 54.7839 15.2324 55.0054 15.2324 55.2788C15.2324 55.5521 15.4552 55.7736 15.7301 55.7736Z" fill="#1E282E" />
                        <path d="M18.0398 55.7736C18.3148 55.7736 18.5376 55.5521 18.5376 55.2788C18.5376 55.0054 18.3148 54.7839 18.0398 54.7839C17.7649 54.7839 17.5421 55.0054 17.5421 55.2788C17.5421 55.5521 17.7649 55.7736 18.0398 55.7736Z" fill="#1E282E" />
                        <path d="M19.1997 39.6849C19.4746 39.6849 19.6975 39.4633 19.6975 39.19C19.6975 38.9167 19.4746 38.6951 19.1997 38.6951C18.9248 38.6951 18.7019 38.9167 18.7019 39.19C18.7019 39.4633 18.9248 39.6849 19.1997 39.6849Z" fill="#1E282E" />
                        <path d="M19.1997 44.2824C19.4746 44.2824 19.6975 44.0608 19.6975 43.7875C19.6975 43.5142 19.4746 43.2926 19.1997 43.2926C18.9248 43.2926 18.7019 43.5142 18.7019 43.7875C18.7019 44.0608 18.9248 44.2824 19.1997 44.2824Z" fill="#1E282E" />
                        <path d="M18.0398 41.9861C18.3148 41.9861 18.5376 41.7645 18.5376 41.4912C18.5376 41.2179 18.3148 40.9963 18.0398 40.9963C17.7649 40.9963 17.5421 41.2179 17.5421 41.4912C17.5421 41.7645 17.7649 41.9861 18.0398 41.9861Z" fill="#1E282E" />
                        <path d="M20.3546 41.9861C20.6295 41.9861 20.8524 41.7645 20.8524 41.4912C20.8524 41.2179 20.6295 40.9963 20.3546 40.9963C20.0797 40.9963 19.8568 41.2179 19.8568 41.4912C19.8568 41.7645 20.0797 41.9861 20.3546 41.9861Z" fill="#1E282E" />
                        <path d="M19.1997 48.8799C19.4746 48.8799 19.6975 48.6583 19.6975 48.385C19.6975 48.1117 19.4746 47.8901 19.1997 47.8901C18.9248 47.8901 18.7019 48.1117 18.7019 48.385C18.7019 48.6583 18.9248 48.8799 19.1997 48.8799Z" fill="#1E282E" />
                        <path d="M18.0398 46.5836C18.3148 46.5836 18.5376 46.362 18.5376 46.0887C18.5376 45.8154 18.3148 45.5938 18.0398 45.5938C17.7649 45.5938 17.5421 45.8154 17.5421 46.0887C17.5421 46.362 17.7649 46.5836 18.0398 46.5836Z" fill="#1E282E" />
                        <path d="M20.3546 46.5836C20.6295 46.5836 20.8524 46.362 20.8524 46.0887C20.8524 45.8154 20.6295 45.5938 20.3546 45.5938C20.0797 45.5938 19.8568 45.8154 19.8568 46.0887C19.8568 46.362 20.0797 46.5836 20.3546 46.5836Z" fill="#1E282E" />
                        <path d="M19.1997 53.4774C19.4746 53.4774 19.6975 53.2558 19.6975 52.9825C19.6975 52.7092 19.4746 52.4876 19.1997 52.4876C18.9248 52.4876 18.7019 52.7092 18.7019 52.9825C18.7019 53.2558 18.9248 53.4774 19.1997 53.4774Z" fill="#1E282E" />
                        <path d="M18.0398 51.1762C18.3148 51.1762 18.5376 50.9546 18.5376 50.6813C18.5376 50.408 18.3148 50.1864 18.0398 50.1864C17.7649 50.1864 17.5421 50.408 17.5421 50.6813C17.5421 50.9546 17.7649 51.1762 18.0398 51.1762Z" fill="#1E282E" />
                        <path d="M20.3546 51.1762C20.6295 51.1762 20.8524 50.9546 20.8524 50.6813C20.8524 50.408 20.6295 50.1864 20.3546 50.1864C20.0797 50.1864 19.8568 50.408 19.8568 50.6813C19.8568 50.9546 20.0797 51.1762 20.3546 51.1762Z" fill="#1E282E" />
                        <path d="M19.1997 58.0749C19.4746 58.0749 19.6975 57.8533 19.6975 57.58C19.6975 57.3067 19.4746 57.0851 19.1997 57.0851C18.9248 57.0851 18.7019 57.3067 18.7019 57.58C18.7019 57.8533 18.9248 58.0749 19.1997 58.0749Z" fill="#1E282E" />
                        <path d="M18.0398 55.7736C18.3148 55.7736 18.5376 55.5521 18.5376 55.2788C18.5376 55.0054 18.3148 54.7839 18.0398 54.7839C17.7649 54.7839 17.5421 55.0054 17.5421 55.2788C17.5421 55.5521 17.7649 55.7736 18.0398 55.7736Z" fill="#1E282E" />
                        <path d="M20.3546 55.7736C20.6295 55.7736 20.8524 55.5521 20.8524 55.2788C20.8524 55.0054 20.6295 54.7839 20.3546 54.7839C20.0797 54.7839 19.8568 55.0054 19.8568 55.2788C19.8568 55.5521 20.0797 55.7736 20.3546 55.7736Z" fill="#1E282E" />
                        <path d="M22.0072 39.19C22.0072 38.9178 21.7832 38.6951 21.5094 38.6951C21.2357 38.6951 21.0117 38.9178 21.0117 39.19C21.0117 39.4622 21.2357 39.6849 21.5094 39.6849C21.7832 39.6849 22.0072 39.4622 22.0072 39.19Z" fill="#1E282E" />
                        <path d="M22.0072 43.7875C22.0072 44.0597 21.7832 44.2824 21.5094 44.2824C21.2357 44.2824 21.0117 44.0597 21.0117 43.7875C21.0117 43.5153 21.2357 43.2926 21.5094 43.2926C21.7832 43.2926 22.0072 43.5153 22.0072 43.7875Z" fill="#1E282E" />
                        <path d="M22.6643 41.9861C22.9392 41.9861 23.1621 41.7645 23.1621 41.4912C23.1621 41.2179 22.9392 40.9963 22.6643 40.9963C22.3894 40.9963 22.1665 41.2179 22.1665 41.4912C22.1665 41.7645 22.3894 41.9861 22.6643 41.9861Z" fill="#1E282E" />
                        <path d="M22.0072 48.385C22.0072 48.6572 21.7832 48.8799 21.5094 48.8799C21.2357 48.8799 21.0117 48.6572 21.0117 48.385C21.0117 48.1128 21.2357 47.8901 21.5094 47.8901C21.7832 47.8901 22.0072 48.1128 22.0072 48.385Z" fill="#1E282E" />
                        <path d="M22.6643 46.5836C22.9392 46.5836 23.1621 46.362 23.1621 46.0887C23.1621 45.8154 22.9392 45.5938 22.6643 45.5938C22.3894 45.5938 22.1665 45.8154 22.1665 46.0887C22.1665 46.362 22.3894 46.5836 22.6643 46.5836Z" fill="#1E282E" />
                        <path d="M22.0072 52.9825C22.0072 53.2547 21.7832 53.4774 21.5094 53.4774C21.2357 53.4774 21.0117 53.2547 21.0117 52.9825C21.0117 52.7103 21.2357 52.4876 21.5094 52.4876C21.7832 52.4876 22.0072 52.7103 22.0072 52.9825Z" fill="#1E282E" />
                        <path d="M22.6643 51.1762C22.9392 51.1762 23.1621 50.9546 23.1621 50.6813C23.1621 50.408 22.9392 50.1864 22.6643 50.1864C22.3894 50.1864 22.1665 50.408 22.1665 50.6813C22.1665 50.9546 22.3894 51.1762 22.6643 51.1762Z" fill="#1E282E" />
                        <path d="M22.0072 57.58C22.0072 57.8522 21.7832 58.0749 21.5094 58.0749C21.2357 58.0749 21.0117 57.8522 21.0117 57.58C21.0117 57.3078 21.2357 57.0851 21.5094 57.0851C21.7832 57.0851 22.0072 57.3078 22.0072 57.58Z" fill="#1E282E" />
                        <path d="M22.6643 55.7736C22.9392 55.7736 23.1621 55.5521 23.1621 55.2788C23.1621 55.0054 22.9392 54.7839 22.6643 54.7839C22.3894 54.7839 22.1665 55.0054 22.1665 55.2788C22.1665 55.5521 22.3894 55.7736 22.6643 55.7736Z" fill="#1E282E" />
                    </g>
                </g>
                <path d="M24.8645 54.3781C24.1128 36.6166 23.9187 18.8354 24.2721 1.05905C19.5929 0.687881 14.859 0.732421 10.13 0.776961C7.16316 4.15703 4.18639 8.10128 1.56305 12.8076C4.47013 13.2728 7.42699 13.4312 10.8269 13.9904C10.7671 27.7681 10.7074 41.5407 10.2096 55.7093C15.1278 56.323 20.1455 56.0805 24.8645 54.3781Z" stroke="#1E282E" stroke-width="1.53" stroke-linecap="round" stroke-linejoin="round" />
                <path d="M0.826355 15.3612L1.41872 19.0234L3.45467 16.4747L4.24616 19.6123L6.08797 17.0636L6.80976 20.0725L8.52215 17.5189" stroke="#1E282E" stroke-width="0.77" stroke-linecap="round" stroke-linejoin="round" />
                <path d="M18.6521 3.78583C18.6521 3.78583 22.0171 3.61261 21.9425 3.8848C22.0221 11.7881 22.1018 19.6865 22.1814 27.5899L19.1449 27.4315" stroke="#1E282E" stroke-width="0.77" stroke-linecap="round" stroke-linejoin="round" />
                <path d="M22.0221 12.0306H18.9408" stroke="#1E282E" stroke-width="0.77" stroke-linecap="round" stroke-linejoin="round" />
                <path d="M21.9574 5.43378C21.2257 5.44384 20.4989 5.44887 19.7672 5.45893" stroke="#1E282E" stroke-width="0.77" stroke-linecap="round" stroke-linejoin="round" />
                <path d="M21.9723 7.16589C21.2804 7.20054 20.5885 7.23518 19.8965 7.26982" stroke="#1E282E" stroke-width="0.77" stroke-linecap="round" stroke-linejoin="round" />
                <path d="M21.9923 9.02173C21.3203 9.03682 20.6532 9.04689 19.9812 9.06198" stroke="#1E282E" stroke-width="0.77" stroke-linecap="round" stroke-linejoin="round" />
                <path d="M22.0072 10.4371C21.37 10.4668 20.7378 10.4915 20.1057 10.5163" stroke="#1E282E" stroke-width="0.77" stroke-linecap="round" stroke-linejoin="round" />
                <path d="M22.042 13.3619C21.584 13.3719 21.1311 13.382 20.6731 13.387" stroke="#1E282E" stroke-width="0.77" stroke-linecap="round" stroke-linejoin="round" />
                <path d="M22.057 15.1741C21.4049 15.1539 20.7578 15.1338 20.1057 15.1187" stroke="#1E282E" stroke-width="0.77" stroke-linecap="round" stroke-linejoin="round" />
                <path d="M22.0719 16.7132C21.4845 16.6931 20.9071 16.678 20.3197 16.6578" stroke="#1E282E" stroke-width="0.77" stroke-linecap="round" stroke-linejoin="round" />
                <path d="M22.0869 18.0983C21.5791 18.0883 21.0714 18.0832 20.5587 18.0732" stroke="#1E282E" stroke-width="0.77" stroke-linecap="round" stroke-linejoin="round" />
                <path d="M22.1167 20.9732C21.5244 20.9883 20.9419 20.9984 20.3546 21.0084" stroke="#1E282E" stroke-width="0.77" stroke-linecap="round" stroke-linejoin="round" />
                <path d="M22.1317 22.4628C21.5343 22.5123 20.9469 22.5618 20.3546 22.6113" stroke="#1E282E" stroke-width="0.77" stroke-linecap="round" stroke-linejoin="round" />
                <path d="M22.1515 24.3286C21.609 24.3386 21.0614 24.3487 20.5188 24.3587" stroke="#1E282E" stroke-width="0.77" stroke-linecap="round" stroke-linejoin="round" />
                <path d="M22.1665 25.9518C21.5741 25.9618 20.9917 25.9769 20.3994 25.987" stroke="#1E282E" stroke-width="0.77" stroke-linecap="round" stroke-linejoin="round" />
                <path d="M22.1018 19.5529C21.1161 19.6123 20.1305 19.6717 19.1449 19.7311" stroke="#1E282E" stroke-width="0.77" stroke-linecap="round" stroke-linejoin="round" />
            </g>
            <defs>
                <filter id="filter0_d_0_667" x="0" y="-0.00286865" width="28.5467" height="61.5554" filterUnits="userSpaceOnUse" color-interpolation-filters="sRGB">
                    <feFlood flood-opacity="0" result="BackgroundImageFix" />
                    <feColorMatrix in="SourceAlpha" type="matrix" values="0 0 0 0 0 0 0 0 0 0 0 0 0 0 0 0 0 0 127 0" result="hardAlpha" />
                    <feOffset dx="3.07" dy="3.07" />
                    <feColorMatrix type="matrix" values="0 0 0 0 0.478431 0 0 0 0 0.486275 0 0 0 0 0.490196 0 0 0 1 0" />
                    <feBlend mode="normal" in2="BackgroundImageFix" result="effect1_dropShadow_0_667" />
                    <feBlend mode="normal" in="SourceGraphic" in2="effect1_dropShadow_0_667" result="shape" />
                </filter>
                <clipPath id="clip0_0_667">
                    <rect width="27" height="60" fill="white" />
                </clipPath>
            </defs>
        </svg>
  