
        <svg width="44" height="60" viewBox="0 0 44 60" fill="none" xmlns="http://www.w3.org/2000/svg">
            <g clip-path="url(#clip0_0_167)">
                <g filter="url(#filter0_d_0_167)">
                    <path d="M3.50029 9.66195C5.86037 12.6516 8.21546 15.6362 10.8394 18.9748C18.0541 10.0464 32.0353 12.3329 25.8812 25.6016C19.8266 37.0239 3.77912 42.5479 4.35669 57.5264C16.8044 58.6494 29.3466 58.7455 41.8092 57.8097C41.8092 57.8097 42.7951 45.9523 41.4159 46.4228C35.7298 45.32 29.8595 45.2087 22.9286 45.7196C32.7125 38.2885 44.3934 26.5223 39.5836 13.0967C33.4245 -0.986392 15.694 -2.72655 3.50029 9.66195Z" fill="#F2EBE1" />
                    <path d="M41.8042 57.8097C41.8042 57.8097 42.7901 45.9523 41.4109 46.4228C35.7248 45.32 29.8545 45.2087 22.9236 45.7196C26.155 43.2662 29.5906 40.3373 32.5681 37.034C28.0023 35.4456 23.068 34.8032 18.0043 35.1219C11.3573 41.44 3.95339 47.2675 4.34673 57.5213C16.7944 58.6443 29.3367 58.7404 41.7993 57.8046L41.8042 57.8097Z" fill="#98C0E3" />
                    <g  opacity="0.18">
                        <path d="M41.4109 46.4228C40.9827 46.3418 40.5495 46.271 40.1163 46.2002C40.2657 48.2186 40.425 52.8877 39.1205 56.4034C39.1205 56.4034 15.7538 57.0357 4.34672 56.0695C4.33179 56.545 4.32681 57.0306 4.34672 57.5264C16.7944 58.6494 29.3367 58.7455 41.7993 57.8097C41.7993 57.8097 42.7851 45.9523 41.4059 46.4228H41.4109Z" fill="#1E282E" />
                    </g>
                    <g  opacity="0.18">
                        <path d="M34.6394 30.8929C28.9981 36.0071 23.1626 40.312 20.1403 46.3874L22.7095 46.0636L23.9244 45.6589C23.5908 45.6791 23.2622 45.6994 22.9236 45.7247C32.1897 38.6831 43.1585 27.7515 40.191 15.2011C40.191 15.8688 40.0914 25.9506 34.6394 30.8929Z" fill="#1E282E" />
                    </g>
                    <g  opacity="0.18">
                        <path d="M9.14157 16.8249C9.69425 17.528 10.2569 18.2413 10.8345 18.9748C15.4102 13.3142 22.7045 12.1659 25.8613 15.4641C20.5536 8.85256 12.7663 13.8504 9.14157 16.8249Z" fill="#1E282E" />
                    </g>
                </g>
                <path d="M22.7095 46.0636C28.5848 45.1884 34.6493 45.6538 40.3255 47.4243C41.9636 50.2875 41.6549 54.3293 40.4051 58.0525C28.5649 59.7117 16.2766 60.0101 4.11271 58.8871C3.60982 51.4257 7.00057 44.8849 11.2626 39.7656C15.5247 34.6463 20.7527 30.3668 24.5966 24.9136C25.8563 23.1229 27.0015 21.0337 26.7475 18.8483C26.3343 15.3073 22.2664 13.1979 18.786 13.6481C15.3007 14.0983 12.3381 16.3443 9.54985 18.5145C7.24952 15.282 5.02388 12.6566 2.51941 9.43935C7.87688 5.15472 14.2999 1.88687 21.1063 1.66429C27.9176 1.44677 35.0775 4.76521 38.2143 10.9114C41.3213 16.9969 39.9769 24.6404 36.5115 30.5236C33.0461 36.4067 27.7533 40.9038 22.7045 46.0636H22.7095Z" stroke="#1E282E" stroke-width="1.53" stroke-linecap="round" stroke-linejoin="round" />
                <path d="M30.2628 0.389526C30.2628 0.389526 39.6433 1.66429 41.5901 13.122" stroke="#1E282E" stroke-width="1.53" stroke-linecap="round" stroke-linejoin="round" />
                <path d="M42.6905 34.4693C41.9884 34.0443 40.9329 34.6058 40.8781 35.4355C40.8184 36.2651 41.7893 36.9682 42.5411 36.6495C43.293 36.3308 43.5668 35.0055 42.6905 34.4743V34.4693Z" stroke="#1E282E" stroke-width="0.77" stroke-linecap="round" stroke-linejoin="round" />
                <path d="M38.8218 39.108C39.5338 39.4975 39.5885 40.6964 38.9164 41.1517C38.2442 41.6069 37.1737 41.0859 37.099 40.2715C37.0243 39.457 38.0152 38.6679 38.8218 39.108Z" stroke="#1E282E" stroke-width="0.77" stroke-linecap="round" stroke-linejoin="round" />
                <path d="M43.4921 40.3726C42.9096 39.7959 41.7495 40.1146 41.5304 40.9139C41.3163 41.7131 42.1478 42.5883 42.9395 42.4011C43.7311 42.2089 44.1245 41.0049 43.4871 40.3777L43.4921 40.3726Z" stroke="#1E282E" stroke-width="0.77" stroke-linecap="round" stroke-linejoin="round" />
                <path d="M0.273849 31.2318C1.98167 30.736 3.74924 30.8625 5.33258 31.682C6.91592 32.4964 7.98144 34.2214 8.59885 35.916" stroke="#1E282E" stroke-width="0.77" stroke-linecap="round" stroke-linejoin="round" />
                <path d="M5.93007 22.1769C6.39313 21.3321 8.50923 21.6356 10.6552 22.8497C12.8062 24.0637 14.1704 25.7331 13.7074 26.5728C13.2443 27.4176 11.1282 27.1141 8.98224 25.9C6.83129 24.6859 5.46702 23.0166 5.93007 22.1769Z" stroke="#1E282E" stroke-width="0.77" stroke-linecap="round" stroke-linejoin="round" />
                <path d="M13.7124 26.5728C12.0344 29.7395 10.1971 32.8758 8.51919 36.0425L8.59885 35.916C8.1358 36.7608 5.9002 36.3915 3.59987 35.0915C1.29954 33.7914 -0.189198 32.0563 0.273855 31.2115V31.2318C2.14598 28.1713 4.05297 25.2373 5.93007 22.1718" stroke="#1E282E" stroke-width="0.77" stroke-linecap="round" stroke-linejoin="round" />
                <path d="M15.1563 39.3204C15.1563 39.3204 6.38815 46.7465 6.38815 56.9648" stroke="#1E282E" stroke-width="0.77" stroke-linecap="round" stroke-linejoin="round" />
                <path d="M28.7691 55.5332C28.7691 54.9312 28.2861 54.4406 27.6936 54.4406C27.1011 54.4406 26.6181 54.9312 26.6181 55.5332C26.6181 56.1352 27.1011 56.6259 27.6936 56.6259C28.2861 56.6259 28.7691 56.1352 28.7691 55.5332Z" stroke="#1E282E" stroke-width="0.77" stroke-linecap="round" stroke-linejoin="round" />
                <path d="M26.7326 55.0526L9.48514 46.3873" stroke="#1E282E" stroke-width="0.77" stroke-linecap="round" stroke-linejoin="round" />
                <path d="M12.0145 45.7246L9.48514 46.3873L10.6602 48.7901" stroke="#1E282E" stroke-width="0.77" stroke-linecap="round" stroke-linejoin="round" />
            </g>
            <defs>
                <filter id="filter0_d_0_167" x="3.50029" y="1.35785" width="41.7203" height="60.1588" filterUnits="userSpaceOnUse" color-interpolation-filters="sRGB">
                    <feFlood flood-opacity="0" result="BackgroundImageFix" />
                    <feColorMatrix in="SourceAlpha" type="matrix" values="0 0 0 0 0 0 0 0 0 0 0 0 0 0 0 0 0 0 127 0" result="hardAlpha" />
                    <feOffset dx="3.07" dy="3.07" />
                    <feColorMatrix type="matrix" values="0 0 0 0 0.478431 0 0 0 0 0.486275 0 0 0 0 0.490196 0 0 0 1 0" />
                    <feBlend mode="normal" in2="BackgroundImageFix" result="effect1_dropShadow_0_167" />
                    <feBlend mode="normal" in="SourceGraphic" in2="effect1_dropShadow_0_167" result="shape" />
                </filter>
                <clipPath id="clip0_0_167">
                    <rect width="44" height="60" fill="white" />
                </clipPath>
            </defs>
        </svg>

