
        <svg width="41" height="60" viewBox="0 0 41 60" fill="none" xmlns="http://www.w3.org/2000/svg">
            <g clip-path="url(#clip0_0_197)">
                <g filter="url(#filter0_d_0_197)">
                    <path d="M2.75341 9.75022C4.65854 12.4747 6.55893 15.1992 8.64888 18.2027C11.0706 15.7715 14.3548 14.2153 17.7717 13.8795C19.3309 13.7234 21.0227 13.8558 22.2596 14.8208C23.8283 16.0411 24.2264 18.3919 23.5013 20.2413C22.7762 22.0907 21.1317 23.4672 19.3166 24.2807C17.5016 25.099 15.5111 25.4254 13.2932 25.7375C13.3927 28.4857 13.497 31.2291 13.5397 34.2184C16.2552 34.1333 19.0844 34.0718 21.5488 35.207C24.0179 36.3422 25.9799 39.0619 25.3116 41.6918C24.9088 43.2763 23.6198 44.5392 22.1222 45.2014C20.6246 45.8636 18.9375 45.9818 17.3025 45.8636C13.388 45.5845 9.58723 43.9574 6.34093 41.233C4.45476 43.8344 2.94772 46.7055 1.9762 49.8462C6.09923 53.0721 10.9142 55.5506 16.0893 56.3689C21.2644 57.1872 26.8234 56.2317 31.0839 53.1856C35.3444 50.1395 38.1025 44.8845 37.5765 39.6768C37.0504 34.4738 32.9416 29.6682 27.6385 29.1762C32.5625 28.5708 36.5386 24.0442 37.0504 19.1156C37.5623 14.1869 34.9273 9.21574 30.8848 6.34464C26.8376 3.47354 21.5867 2.58904 16.677 3.32691C11.772 4.06952 7.18923 6.33045 2.74867 9.75022" fill="#F2EBE1" />
                    <path d="M15.1368 52.5802C11.5492 52.514 7.99964 51.2037 5.22725 48.9334C6.06133 45.8305 7.14185 43.1722 8.48303 40.9019C11.2602 41.8952 14.0373 42.8884 16.9424 43.9432C16.3405 46.9751 15.7339 50.0071 15.132 52.5802H15.1368Z" fill="#98C0E3" />
                    <mask id="mask0_0_197"  maskUnits="userSpaceOnUse" x="5" y="40" width="12" height="13">
                        <path d="M15.1368 52.5802C11.5492 52.514 7.99964 51.2037 5.22725 48.9334C6.06133 45.8305 7.14185 43.1722 8.48303 40.9019C11.2602 41.8952 14.0373 42.8884 16.9424 43.9432C16.3405 46.9751 15.7339 50.0071 15.132 52.5802H15.1368Z" fill="white" />
                    </mask>
                    <g mask="url(#mask0_0_197)">
                        <path d="M14.3548 41.058C14.4164 40.8782 14.3169 40.689 14.1415 40.6275C13.9662 40.566 13.7719 40.6654 13.7103 40.8404C13.6487 41.0154 13.7482 41.2093 13.9235 41.2708C14.1036 41.3323 14.2932 41.233 14.3548 41.058Z" fill="#1E282E" />
                        <path d="M8.62048 40.812C8.68208 40.6322 8.58256 40.443 8.40722 40.3816C8.23187 40.3201 8.03756 40.4194 7.97596 40.5944C7.91435 40.7694 8.01387 40.9633 8.18922 41.0248C8.3693 41.0863 8.55887 40.987 8.62048 40.812Z" fill="#1E282E" />
                        <path d="M10.1133 41.3086C10.1749 41.1289 10.0754 40.9397 9.90003 40.8782C9.71994 40.8167 9.53038 40.916 9.46877 41.0911C9.40716 41.2708 9.50668 41.46 9.68203 41.5215C9.86212 41.583 10.0517 41.4836 10.1133 41.3086Z" fill="#1E282E" />
                        <path d="M5.87652 41.5593C5.81491 41.7391 5.62534 41.8337 5.44526 41.7722C5.26517 41.7107 5.17039 41.5215 5.232 41.3418C5.29361 41.162 5.48317 41.0674 5.66326 41.1289C5.84334 41.1904 5.93813 41.3796 5.87652 41.5593Z" fill="#1E282E" />
                        <path d="M7.37408 42.056C7.31247 42.2357 7.1229 42.3303 6.94282 42.2688C6.76273 42.2073 6.66795 42.0182 6.72956 41.8384C6.79116 41.6587 6.98073 41.5641 7.16082 41.6256C7.3409 41.6871 7.43569 41.8763 7.37408 42.056Z" fill="#1E282E" />
                        <path d="M8.8669 42.5526C8.8053 42.7324 8.61573 42.827 8.43564 42.7655C8.25556 42.704 8.16078 42.5148 8.22238 42.3351C8.28399 42.1553 8.47356 42.0607 8.65364 42.1222C8.83373 42.1837 8.92851 42.3729 8.8669 42.5526Z" fill="#1E282E" />
                        <path d="M10.3645 43.0493C10.3029 43.229 10.1133 43.3236 9.9332 43.2621C9.75312 43.2006 9.65833 43.0114 9.71994 42.8317C9.78155 42.652 9.97112 42.5574 10.1512 42.6188C10.3313 42.6803 10.4261 42.8695 10.3645 43.0493Z" fill="#1E282E" />
                        <path d="M11.862 43.5459C11.8004 43.7257 11.6108 43.8203 11.4308 43.7588C11.2507 43.6973 11.1559 43.5081 11.2175 43.3283C11.2791 43.1486 11.4687 43.054 11.6488 43.1155C11.8288 43.177 11.9236 43.3662 11.862 43.5459Z" fill="#1E282E" />
                        <path d="M13.3596 44.0426C13.298 44.2223 13.1084 44.3169 12.9283 44.2554C12.7482 44.1939 12.6535 44.0047 12.7151 43.825C12.7767 43.6452 12.9662 43.5506 13.1463 43.6121C13.3264 43.6736 13.4212 43.8628 13.3596 44.0426Z" fill="#1E282E" />
                        <path d="M11.6109 41.8053C11.6725 41.6255 11.5729 41.4363 11.3976 41.3748C11.2223 41.3134 11.028 41.4127 10.9663 41.5877C10.9047 41.7627 11.0043 41.9566 11.1796 42.0181C11.3597 42.0796 11.5493 41.9803 11.6109 41.8053Z" fill="#1E282E" />
                        <path d="M13.1084 42.3019C13.17 42.1222 13.0705 41.933 12.8952 41.8715C12.7151 41.81 12.5255 41.9093 12.4639 42.0843C12.4023 42.2641 12.5018 42.4533 12.6772 42.5148C12.8572 42.5763 13.0468 42.4769 13.1084 42.3019Z" fill="#1E282E" />
                        <path d="M14.6012 42.7986C14.6629 42.6188 14.5633 42.4296 14.388 42.3681C14.2079 42.3066 14.0183 42.406 13.9567 42.581C13.8951 42.756 13.9946 42.9499 14.17 43.0114C14.3501 43.0729 14.5396 42.9736 14.6012 42.7986Z" fill="#1E282E" />
                        <path d="M7.62051 43.7966C7.68211 43.6169 7.58259 43.4277 7.40725 43.3662C7.22716 43.3047 7.03759 43.404 6.97599 43.579C6.91438 43.754 7.0139 43.948 7.18925 44.0095C7.36459 44.0709 7.5589 43.9716 7.62051 43.7966Z" fill="#1E282E" />
                        <path d="M9.11808 44.2932C9.17969 44.1135 9.08017 43.9243 8.90482 43.8628C8.72473 43.8013 8.53517 43.9007 8.47356 44.0757C8.41195 44.2554 8.51147 44.4446 8.68682 44.5061C8.86217 44.5676 9.05647 44.4683 9.11808 44.2932Z" fill="#1E282E" />
                        <path d="M6.37412 45.0406C6.31251 45.2203 6.12295 45.3149 5.94286 45.2535C5.76278 45.192 5.66799 45.0028 5.7296 44.823C5.79121 44.6433 5.98077 44.5487 6.16086 44.6102C6.34095 44.6717 6.43573 44.8609 6.37412 45.0406Z" fill="#1E282E" />
                        <path d="M7.87168 45.5373C7.81007 45.717 7.62051 45.8116 7.44042 45.7501C7.26033 45.6886 7.16555 45.4994 7.22716 45.3197C7.28877 45.1399 7.47833 45.0453 7.65842 45.1068C7.83851 45.1683 7.93329 45.3575 7.87168 45.5373Z" fill="#1E282E" />
                        <path d="M9.36925 46.0386C9.30765 46.2183 9.11808 46.3129 8.93799 46.2514C8.75791 46.19 8.66313 46.0008 8.72473 45.821C8.78634 45.6413 8.97591 45.5467 9.15599 45.6082C9.33608 45.6697 9.43086 45.8589 9.36925 46.0386Z" fill="#1E282E" />
                        <path d="M10.8668 46.5352C10.8052 46.715 10.6156 46.8096 10.4356 46.7481C10.2555 46.6866 10.1607 46.4974 10.2223 46.3177C10.2839 46.1379 10.4735 46.0433 10.6536 46.1048C10.8336 46.1663 10.9284 46.3555 10.8668 46.5352Z" fill="#1E282E" />
                        <path d="M12.3596 47.0319C12.298 47.2117 12.1085 47.3063 11.9284 47.2448C11.7483 47.1833 11.6535 46.9941 11.7151 46.8144C11.7767 46.6346 11.9663 46.54 12.1464 46.6015C12.3265 46.663 12.4213 46.8522 12.3596 47.0319Z" fill="#1E282E" />
                        <path d="M6.12769 43.3C6.1893 43.1202 6.08978 42.931 5.91443 42.8695C5.73435 42.808 5.54478 42.9074 5.48317 43.0824C5.42156 43.2621 5.52109 43.4513 5.69643 43.5128C5.87178 43.5743 6.06608 43.475 6.12769 43.3Z" fill="#1E282E" />
                        <path d="M10.6156 44.7899C10.6772 44.6102 10.5777 44.421 10.4024 44.3595C10.2223 44.298 10.0327 44.3973 9.97112 44.5723C9.90951 44.7473 10.009 44.9413 10.1844 45.0027C10.3645 45.0642 10.554 44.9649 10.6156 44.7899Z" fill="#1E282E" />
                        <path d="M12.1132 45.2913C12.1748 45.1116 12.0753 44.9224 11.8999 44.8609C11.7199 44.7994 11.5303 44.8987 11.4687 45.0737C11.4071 45.2535 11.5066 45.4427 11.6819 45.5041C11.8573 45.5656 12.0516 45.4663 12.1132 45.2913Z" fill="#1E282E" />
                        <path d="M13.606 45.7879C13.6676 45.6082 13.5681 45.419 13.3928 45.3575C13.2127 45.296 13.0231 45.3954 12.9615 45.5704C12.8999 45.7454 12.9994 45.9393 13.1748 46.0008C13.3501 46.0623 13.5444 45.963 13.606 45.7879Z" fill="#1E282E" />
                        <path d="M6.6253 46.7812C6.68691 46.6015 6.58738 46.4123 6.41204 46.3508C6.23195 46.2893 6.04239 46.3886 5.98078 46.5636C5.91917 46.7434 6.01869 46.9326 6.19404 46.9941C6.36939 47.0556 6.56369 46.9562 6.6253 46.7812Z" fill="#1E282E" />
                        <path d="M8.12286 47.2826C8.18446 47.1029 8.08494 46.9137 7.9096 46.8522C7.72951 46.7907 7.53994 46.89 7.47834 47.065C7.41673 47.2448 7.51625 47.434 7.6916 47.4955C7.86694 47.557 8.06125 47.4576 8.12286 47.2826Z" fill="#1E282E" />
                        <path d="M5.37891 48.0299C5.31731 48.2097 5.12774 48.3043 4.94765 48.2428C4.76757 48.1813 4.67278 47.9921 4.73439 47.8123C4.796 47.6326 4.98557 47.538 5.16565 47.5995C5.34574 47.661 5.44052 47.8502 5.37891 48.0299Z" fill="#1E282E" />
                        <path d="M6.87647 48.5266C6.81486 48.7063 6.6253 48.8009 6.44521 48.7394C6.26513 48.6779 6.17034 48.4887 6.23195 48.309C6.29356 48.1293 6.48313 48.0347 6.66321 48.0961C6.8433 48.1576 6.93808 48.3468 6.87647 48.5266Z" fill="#1E282E" />
                        <path d="M8.37403 49.0232C8.31242 49.203 8.12286 49.2976 7.94277 49.2361C7.76268 49.1746 7.6679 48.9854 7.72951 48.8056C7.79112 48.6259 7.98068 48.5313 8.16077 48.5928C8.34086 48.6543 8.43564 48.8435 8.37403 49.0232Z" fill="#1E282E" />
                        <path d="M9.86686 49.5199C9.80525 49.6996 9.61569 49.7942 9.4356 49.7327C9.25551 49.6712 9.16073 49.482 9.22234 49.3023C9.28395 49.1225 9.47351 49.0279 9.6536 49.0894C9.83369 49.1509 9.92847 49.3401 9.86686 49.5199Z" fill="#1E282E" />
                        <path d="M11.3644 50.0165C11.3028 50.1962 11.1132 50.2908 10.9332 50.2293C10.7531 50.1679 10.6583 49.9787 10.7199 49.7989C10.7815 49.6192 10.9711 49.5246 11.1512 49.5861C11.3312 49.6476 11.426 49.8368 11.3644 50.0165Z" fill="#1E282E" />
                        <path d="M9.62043 47.7793C9.68204 47.5995 9.58252 47.4103 9.40717 47.3488C9.22708 47.2874 9.03752 47.3867 8.97591 47.5617C8.9143 47.7367 9.01382 47.9306 9.18917 47.9921C9.36926 48.0536 9.55882 47.9543 9.62043 47.7793Z" fill="#1E282E" />
                        <path d="M11.1132 48.2759C11.1749 48.0962 11.0753 47.907 10.9 47.8455C10.7199 47.784 10.5303 47.8833 10.4687 48.0583C10.4071 48.2381 10.5066 48.4273 10.682 48.4888C10.8573 48.5503 11.0516 48.4509 11.1132 48.2759Z" fill="#1E282E" />
                        <path d="M12.6108 48.7726C12.6724 48.5928 12.5729 48.4036 12.3976 48.3421C12.2175 48.2806 12.0279 48.38 11.9663 48.555C11.9047 48.73 12.0042 48.9239 12.1796 48.9854C12.3549 49.0469 12.5492 48.9476 12.6108 48.7726Z" fill="#1E282E" />
                        <path d="M5.63009 49.7705C5.6917 49.5908 5.59218 49.4016 5.41683 49.3401C5.23674 49.2786 5.04718 49.378 4.98557 49.553C4.92396 49.7327 5.02348 49.9219 5.19883 49.9834C5.37418 50.0449 5.56848 49.9456 5.63009 49.7705Z" fill="#1E282E" />
                        <path d="M7.12765 50.2672C7.18926 50.0875 7.08973 49.8982 6.91439 49.8368C6.7343 49.7753 6.54474 49.8746 6.48313 50.0496C6.42152 50.2293 6.52104 50.4185 6.69639 50.48C6.87173 50.5415 7.06604 50.4422 7.12765 50.2672Z" fill="#1E282E" />
                        <path d="M5.88126 51.5112C5.81965 51.6909 5.63009 51.7855 5.45 51.724C5.26992 51.6625 5.17513 51.4733 5.23674 51.2936C5.29835 51.1139 5.48792 51.0193 5.668 51.0808C5.84809 51.1423 5.94287 51.3314 5.88126 51.5112Z" fill="#1E282E" />
                        <path d="M7.37408 52.0078C7.31247 52.1876 7.1229 52.2822 6.94282 52.2207C6.76273 52.1592 6.66795 51.97 6.72956 51.7903C6.79116 51.6105 6.98073 51.5159 7.16082 51.5774C7.3409 51.6389 7.43569 51.8281 7.37408 52.0078Z" fill="#1E282E" />
                        <path d="M8.87165 52.5045C8.81004 52.6842 8.62048 52.7788 8.44039 52.7173C8.2603 52.6558 8.16552 52.4666 8.22713 52.2869C8.28874 52.1072 8.4783 52.0126 8.65839 52.074C8.83848 52.1355 8.93326 52.3247 8.87165 52.5045Z" fill="#1E282E" />
                        <path d="M10.3692 53.0059C10.3076 53.1856 10.118 53.2802 9.93795 53.2187C9.75786 53.1572 9.66308 52.968 9.72469 52.7883C9.7863 52.6086 9.97586 52.514 10.1559 52.5755C10.336 52.6369 10.4308 52.8261 10.3692 53.0059Z" fill="#1E282E" />
                        <path d="M8.62048 50.7639C8.68208 50.5842 8.58256 50.395 8.40722 50.3335C8.22713 50.272 8.03756 50.3713 7.97596 50.5463C7.91435 50.7213 8.01387 50.9153 8.18922 50.9767C8.36456 51.0382 8.55887 50.9389 8.62048 50.7639Z" fill="#1E282E" />
                        <path d="M10.118 51.2605C10.1796 51.0808 10.0801 50.8916 9.90477 50.8301C9.72469 50.7686 9.53512 50.8679 9.47351 51.043C9.41191 51.2227 9.51143 51.4119 9.68677 51.4734C9.86686 51.5349 10.0564 51.4355 10.118 51.2605Z" fill="#1E282E" />
                        <path d="M11.6156 51.7572C11.6772 51.5774 11.5777 51.3882 11.4023 51.3268C11.2222 51.2653 11.0327 51.3646 10.9711 51.5396C10.9095 51.7146 11.009 51.9085 11.1843 51.97C11.3644 52.0315 11.554 51.9322 11.6156 51.7572Z" fill="#1E282E" />
                        <path d="M15.8476 41.5546C15.9092 41.3749 15.8097 41.1857 15.6344 41.1242C15.4543 41.0627 15.2647 41.162 15.2031 41.337C15.1415 41.5168 15.241 41.706 15.4164 41.7675C15.5965 41.8289 15.786 41.7296 15.8476 41.5546Z" fill="#1E282E" />
                        <path d="M14.8524 44.544C14.7908 44.7237 14.6012 44.8183 14.4211 44.7568C14.2411 44.6953 14.1463 44.5061 14.2079 44.3264C14.2695 44.1466 14.4591 44.052 14.6391 44.1135C14.8192 44.175 14.914 44.3642 14.8524 44.544Z" fill="#1E282E" />
                        <path d="M14.6012 42.7986C14.6629 42.6188 14.5633 42.4296 14.388 42.3681C14.2079 42.3066 14.0183 42.406 13.9567 42.581C13.8951 42.756 13.9946 42.9499 14.17 43.0114C14.3501 43.0729 14.5396 42.9736 14.6012 42.7986Z" fill="#1E282E" />
                        <path d="M16.0988 43.2952C16.1604 43.1155 16.0609 42.9263 15.8855 42.8648C15.7055 42.8033 15.5159 42.9026 15.4543 43.0776C15.3927 43.2574 15.4922 43.4466 15.6675 43.5081C15.8429 43.5695 16.0372 43.4702 16.0988 43.2952Z" fill="#1E282E" />
                        <path d="M13.8572 47.5286C13.7956 47.7083 13.606 47.8029 13.4259 47.7414C13.2459 47.6799 13.1511 47.4907 13.2127 47.311C13.2743 47.1313 13.4639 47.0367 13.6439 47.0982C13.824 47.1596 13.9188 47.3488 13.8572 47.5286Z" fill="#1E282E" />
                        <path d="M13.606 45.7879C13.6676 45.6082 13.5681 45.419 13.3928 45.3575C13.2127 45.296 13.0231 45.3954 12.9615 45.5704C12.8999 45.7454 12.9994 45.9393 13.1748 46.0008C13.3501 46.0623 13.5444 45.963 13.606 45.7879Z" fill="#1E282E" />
                        <path d="M15.1036 46.2846C15.1652 46.1048 15.0657 45.9156 14.8903 45.8542C14.7102 45.7927 14.5207 45.892 14.4591 46.067C14.3975 46.2467 14.497 46.4359 14.6723 46.4974C14.8477 46.5589 15.042 46.4596 15.1036 46.2846Z" fill="#1E282E" />
                        <path d="M12.862 50.5132C12.8004 50.6929 12.6108 50.7875 12.4307 50.7261C12.2506 50.6646 12.1558 50.4754 12.2175 50.2956C12.2791 50.1159 12.4686 50.0213 12.6487 50.0828C12.8288 50.1443 12.9236 50.3335 12.862 50.5132Z" fill="#1E282E" />
                        <path d="M12.6108 48.7726C12.6724 48.5928 12.5729 48.4036 12.3976 48.3421C12.2175 48.2806 12.0279 48.38 11.9663 48.555C11.9047 48.73 12.0042 48.9239 12.1796 48.9854C12.3549 49.0469 12.5492 48.9476 12.6108 48.7726Z" fill="#1E282E" />
                        <path d="M14.1084 49.2692C14.17 49.0895 14.0705 48.9003 13.8951 48.8388C13.715 48.7773 13.5255 48.8766 13.4639 49.0516C13.4022 49.2314 13.5018 49.4206 13.6771 49.4821C13.8525 49.5435 14.0468 49.4442 14.1084 49.2692Z" fill="#1E282E" />
                        <path d="M11.6156 51.7572C11.6772 51.5774 11.5777 51.3882 11.4023 51.3268C11.2222 51.2653 11.0327 51.3646 10.9711 51.5396C10.9095 51.7146 11.009 51.9085 11.1843 51.97C11.3644 52.0315 11.554 51.9322 11.6156 51.7572Z" fill="#1E282E" />
                        <path d="M13.1084 52.2585C13.17 52.0788 13.0705 51.8896 12.8952 51.8281C12.7151 51.7666 12.5255 51.8659 12.4639 52.0409C12.4023 52.2207 12.5018 52.4099 12.6772 52.4714C12.8572 52.5329 13.0468 52.4335 13.1084 52.2585Z" fill="#1E282E" />
                        <path d="M17.3452 42.0512C17.4068 41.8715 17.3073 41.6823 17.1319 41.6208C16.9566 41.5593 16.7623 41.6587 16.7007 41.8337C16.6391 42.0087 16.7386 42.2026 16.9139 42.2641C17.094 42.3256 17.2836 42.2263 17.3452 42.0512Z" fill="#1E282E" />
                        <path d="M16.35 45.0406C16.2884 45.2203 16.0988 45.3149 15.9187 45.2535C15.7386 45.192 15.6439 45.0028 15.7055 44.823C15.7671 44.6433 15.9566 44.5487 16.1367 44.6102C16.3168 44.6717 16.4116 44.8609 16.35 45.0406Z" fill="#1E282E" />
                        <path d="M17.5964 43.7966C17.658 43.6169 17.5585 43.4277 17.3831 43.3662C17.203 43.3047 17.0135 43.404 16.9518 43.579C16.8902 43.7588 16.9898 43.948 17.1651 44.0095C17.3405 44.0709 17.5348 43.9716 17.5964 43.7966Z" fill="#1E282E" />
                        <path d="M15.3548 48.0252C15.2932 48.205 15.1036 48.2996 14.9235 48.2381C14.7434 48.1766 14.6486 47.9874 14.7102 47.8076C14.7718 47.6279 14.9614 47.5333 15.1415 47.5948C15.3216 47.6563 15.4164 47.8455 15.3548 48.0252Z" fill="#1E282E" />
                        <path d="M16.6012 46.7812C16.6628 46.6015 16.5632 46.4123 16.3879 46.3508C16.2078 46.2893 16.0182 46.3886 15.9566 46.5636C15.895 46.7434 15.9946 46.9326 16.1699 46.9941C16.3452 47.0556 16.5395 46.9562 16.6012 46.7812Z" fill="#1E282E" />
                        <path d="M14.3548 51.0098C14.2932 51.1896 14.1036 51.2842 13.9235 51.2227C13.7435 51.1612 13.6487 50.972 13.7103 50.7923C13.7719 50.6125 13.9615 50.5179 14.1415 50.5794C14.3216 50.6409 14.4164 50.8301 14.3548 51.0098Z" fill="#1E282E" />
                        <path d="M15.6012 49.7658C15.6628 49.5861 15.5633 49.3969 15.3879 49.3354C15.2078 49.2739 15.0183 49.3733 14.9567 49.5483C14.8951 49.728 14.9946 49.9172 15.1699 49.9787C15.3453 50.0402 15.5396 49.9409 15.6012 49.7658Z" fill="#1E282E" />
                        <path d="M14.606 52.7552C14.6676 52.5754 14.5681 52.3862 14.3927 52.3247C14.2126 52.2632 14.0231 52.3626 13.9615 52.5376C13.8999 52.7126 13.9994 52.9065 14.1747 52.968C14.3548 53.0295 14.5444 52.9302 14.606 52.7552Z" fill="#1E282E" />
                        <path d="M16.8476 48.5219C16.786 48.7016 16.5964 48.7962 16.4163 48.7347C16.2362 48.6732 16.1415 48.484 16.2031 48.3043C16.2647 48.1246 16.4542 48.03 16.6343 48.0914C16.8144 48.1529 16.9092 48.3421 16.8476 48.5219Z" fill="#1E282E" />
                        <path d="M15.8524 51.5112C15.7908 51.6909 15.6012 51.7855 15.4211 51.724C15.241 51.6625 15.1462 51.4733 15.2079 51.2936C15.2695 51.1139 15.459 51.0193 15.6391 51.0808C15.8192 51.1423 15.914 51.3314 15.8524 51.5112Z" fill="#1E282E" />
                        <path d="M17.0988 50.2625C17.1604 50.0828 17.0608 49.8935 16.8855 49.8321C16.7054 49.7706 16.5159 49.8699 16.4542 50.0449C16.3926 50.2199 16.4922 50.4138 16.6675 50.4753C16.8428 50.5368 17.0372 50.4375 17.0988 50.2625Z" fill="#1E282E" />
                    </g>
                    <path d="M17.767 13.8747C19.3261 13.7186 21.018 13.8511 22.2549 14.816C23.8236 16.0363 24.2216 18.3871 23.4966 20.2366C22.7715 22.086 21.127 23.4624 19.3119 24.276C17.4968 25.0942 15.5064 25.4206 13.2885 25.7328C13.3501 27.4498 13.4117 29.1715 13.4638 30.95C18.9991 30.5763 24.4159 29.8762 29.6669 28.689C33.6193 27.2748 36.6145 23.3489 37.0552 19.1203C37.567 14.1916 34.9321 9.22044 30.8896 6.34934C26.8424 3.47824 21.5914 2.59374 16.6817 3.33161C11.7767 4.07422 7.19398 6.33515 2.75342 9.75492C4.65855 12.4794 6.55893 15.2039 8.64889 18.2074C11.0706 15.7762 14.3548 14.22 17.7717 13.8842L17.767 13.8747Z" fill="#98C0E3" />
                    <g opacity="0.18">
                        <path d="M13.5018 32.5345C13.516 33.0879 13.5255 33.6413 13.5349 34.2137C16.2504 34.1285 19.0797 34.067 21.544 35.2022C23.2312 35.978 24.6861 37.501 25.2216 39.2227C23.8378 33.1684 17.6248 32.3643 13.5018 32.5345Z" fill="#1E282E" />
                    </g>
                    <g opacity="0.18">
                        <path d="M16.0893 56.3641C21.2644 57.1824 26.8234 56.227 31.0839 53.1809C35.3444 50.1347 38.1025 44.8797 37.5765 39.672C37.0505 34.4691 32.9416 29.6634 27.6386 29.1715C32.5625 28.5661 36.5386 24.0395 37.0505 19.1108C37.3348 16.4006 36.6571 13.6761 35.3207 11.2922C35.4676 11.7273 38.9745 22.6063 24.4539 31.3284C24.4539 31.3284 36.2969 34.7671 34.4202 43.3803C32.5578 51.9369 19.056 62.0448 2.31268 48.8151C2.1942 49.1556 2.07573 49.4962 1.97147 49.8415C6.0945 53.0673 10.9095 55.5458 16.0846 56.3641H16.0893Z" fill="#1E282E" />
                    </g>
                    <g opacity="0.18">
                        <path d="M7.09445 15.9701C7.60154 16.6985 8.1181 17.4364 8.64414 18.1979C11.0658 15.7667 14.35 14.2106 17.767 13.8747C19.3261 13.7187 21.018 13.8511 22.2549 14.816C22.9658 15.3694 23.4302 16.1499 23.6672 17.0155C21.7431 8.64339 10.7673 13.9362 7.09445 15.9749V15.9701Z" fill="#1E282E" />
                    </g>
                </g>
                <path d="M26.8519 30.1364C31.7521 31.0304 35.5197 35.6847 35.9273 40.6369C36.3348 45.5892 33.6809 50.5321 29.6527 53.4552C25.6244 56.3783 20.4019 57.3953 15.4543 56.8371C10.5066 56.2837 5.81015 54.2498 1.61603 51.5774C2.64916 47.8265 3.97611 44.8892 5.81015 42.3019C9.90001 44.227 14.7102 45.3669 19.1745 44.5155C20.5156 44.2601 21.8947 43.7871 22.7667 42.7418C23.9847 41.285 23.8615 39.0098 22.7857 37.4442C21.7146 35.8786 19.8806 34.9657 18.0134 34.6015C16.1462 34.2373 14.2268 34.3603 12.3312 34.488C12.4781 31.8297 12.3217 29.4647 12.1701 27.1045C14.9709 25.87 17.4257 25.2692 19.3925 23.8077C21.3545 22.3461 22.7146 19.7825 22.0227 17.4411C21.4493 15.5018 19.5631 14.1302 17.5632 13.7943C15.5633 13.4632 13.5017 14.045 11.7293 15.0241C9.95688 16.0032 8.43089 17.3655 6.92384 18.7135C4.7012 15.289 2.67759 12.2713 0.364899 9.26301C4.90498 5.56889 10.137 2.4613 15.9234 1.55787C21.7099 0.654448 28.1267 2.27683 31.9322 6.72301C34.7709 10.0387 35.9036 14.7356 34.8847 18.9736C33.8658 23.2117 30.7237 26.8916 26.8471 30.1411L26.8519 30.1364Z" stroke="#1E282E" stroke-width="1.53" stroke-linecap="round" stroke-linejoin="round" />
                <path d="M26.8898 32.0142C30.3398 34.0103 32.6905 37.7801 32.9606 41.7485C33.2307 45.717 31.4109 49.7706 28.2641 52.2112C25.1173 54.6519 20.7336 55.4087 16.9471 54.1694" stroke="#1E282E" stroke-width="0.77" stroke-linecap="round" stroke-linejoin="round" />
                <path d="M19.3024 41.1572C18.6911 41.1951 18.1603 40.5045 18.3593 39.9274C18.5584 39.3504 19.402 39.1234 19.8617 39.5254C20.3213 39.9274 20.2787 41.1005 19.3072 41.162L19.3024 41.1572Z" stroke="#1E282E" stroke-width="0.77" stroke-linecap="round" stroke-linejoin="round" />
                <path d="M19.9612 40.8214C23.3259 43.7209 27.0556 46.9893 30.3683 49.832" stroke="#1E282E" stroke-width="0.77" stroke-linecap="round" stroke-linejoin="round" />
                <path d="M27.7333 49.832L30.3683 49.8084L30.1029 47.117" stroke="#1E282E" stroke-width="0.77" stroke-linecap="round" stroke-linejoin="round" />
            </g>
            <defs>
                <filter id="filter0_d_0_197" x="1.97147" y="3.07935" width="38.7392" height="56.6389" filterUnits="userSpaceOnUse" color-interpolation-filters="sRGB">
                    <feFlood flood-opacity="0" result="BackgroundImageFix" />
                    <feColorMatrix in="SourceAlpha" type="matrix" values="0 0 0 0 0 0 0 0 0 0 0 0 0 0 0 0 0 0 127 0" result="hardAlpha" />
                    <feOffset dx="3.07" dy="3.07" />
                    <feColorMatrix type="matrix" values="0 0 0 0 0.478431 0 0 0 0 0.486275 0 0 0 0 0.490196 0 0 0 1 0" />
                    <feBlend mode="normal" in2="BackgroundImageFix" result="effect1_dropShadow_0_197" />
                    <feBlend mode="normal" in="SourceGraphic" in2="effect1_dropShadow_0_197" result="shape" />
                </filter>
                <clipPath id="clip0_0_197">
                    <rect width="41" height="60" fill="white" />
                </clipPath>
            </defs>
        </svg>
