
        <svg width="39" height="60" viewBox="0 0 39 60" fill="none" xmlns="http://www.w3.org/2000/svg">
            <g clip-path="url(#clip0_0_313)">
                <g filter="url(#filter0_d_0_313)">
                    <path d="M34.2093 5.11212C28.4049 5.46286 23.2986 5.64063 18.2115 6.07785C11.8095 15.2354 6.02906 25.2242 1.00405 35.7415C0.946678 38.975 0.889304 42.2085 0.798462 45.5189C7.94631 46.1147 15.1563 46.0186 22.0316 45.1153C22.0125 48.7668 21.9934 52.4183 21.4914 56.608C25.5315 57.2518 29.6719 57.2566 34.0945 56.5984C34.8786 39.4507 34.9169 22.2646 34.2093 5.11693M21.8882 35.0256C18.8378 35.4052 15.7635 35.5782 12.694 35.5349C15.142 28.8181 18.3549 22.3751 22.2564 16.7345C22.1799 22.9372 22.1081 29.1448 21.8882 35.0256Z" fill="#F2EBE1" />
                    <g opacity="0.18">
                        <path d="M31.9717 5.24185C32.0243 14.1976 32.182 40.3684 32.3398 53.9942C32.3398 53.9942 25.5075 54.4507 21.7161 54.3258C21.6539 55.0705 21.5822 55.8248 21.4866 56.6032C25.5267 57.247 29.6672 57.2518 34.0897 56.5935C34.8738 39.4459 34.9121 22.2598 34.2045 5.11212C33.4491 5.16017 32.7032 5.1986 31.9669 5.24185H31.9717Z" fill="#1E282E" />
                    </g>
                    <path d="M35.3998 12.7178C30.2505 14.1448 24.8191 14.5292 19.5215 13.8373C19.6793 10.3684 19.9997 7.53846 20.0188 4.83826C24.9338 3.61309 30.0688 3.30079 35.0651 4.60764C35.1703 7.36549 35.2803 10.1233 35.3998 12.7178Z" fill="#98C0E3" />
                    <mask id="mask0_0_313" maskUnits="userSpaceOnUse" x="19" y="3" width="17" height="12">
                        <path d="M35.3998 12.7178C30.2505 14.1448 24.8191 14.5292 19.5215 13.8373C19.6793 10.3684 19.9997 7.53846 20.0188 4.83826C24.9338 3.61309 30.0688 3.30079 35.0651 4.60764C35.1703 7.36549 35.2803 10.1233 35.3998 12.7178Z" fill="white" />
                    </mask>
                    <g mask="url(#mask0_0_313)">
                        <path d="M22.3233 3.31041C22.309 3.06537 22.0986 2.87319 21.85 2.8876C21.6061 2.90202 21.4149 3.11342 21.4292 3.36326C21.4436 3.60829 21.6539 3.80048 21.9026 3.78606C22.1512 3.77165 22.3376 3.56025 22.3233 3.31041Z" fill="#1E282E" />
                        <path d="M21.4149 5.44849C21.4292 5.69352 21.2428 5.90973 20.9941 5.92414C20.7503 5.93856 20.5351 5.75118 20.5208 5.50134C20.5065 5.2563 20.6929 5.04009 20.9415 5.02568C21.1854 5.01127 21.4005 5.19865 21.4149 5.44849Z" fill="#1E282E" />
                        <path d="M23.4804 5.32355C23.4947 5.56858 23.3082 5.78479 23.0596 5.7992C22.8158 5.81362 22.6006 5.62624 22.5863 5.3764C22.5719 5.13136 22.7584 4.91516 23.007 4.90074C23.2509 4.88633 23.466 5.07371 23.4804 5.32355Z" fill="#1E282E" />
                        <path d="M25.5458 5.19861C25.5601 5.44364 25.3737 5.65985 25.125 5.67427C24.8764 5.68868 24.6661 5.5013 24.6517 5.25146C24.6374 5.00642 24.8238 4.79022 25.0725 4.7758C25.3211 4.76139 25.5314 4.94877 25.5458 5.19861Z" fill="#1E282E" />
                        <path d="M27.616 5.07367C27.6304 5.31871 27.4439 5.53491 27.1953 5.54933C26.9515 5.56374 26.7363 5.37636 26.722 5.12652C26.7076 4.88149 26.8941 4.66528 27.1427 4.65086C27.3865 4.63645 27.6017 4.82383 27.616 5.07367Z" fill="#1E282E" />
                        <path d="M29.6815 4.94879C29.6959 5.19383 29.5094 5.41003 29.2608 5.42445C29.017 5.43886 28.8018 5.25148 28.7875 5.00164C28.7731 4.7518 28.9596 4.5404 29.2082 4.52599C29.452 4.51157 29.6672 4.69895 29.6815 4.94879Z" fill="#1E282E" />
                        <path d="M20.2579 3.43535C20.2435 3.19031 20.0332 2.99813 19.7845 3.01254C19.5407 3.02695 19.3495 3.23836 19.3638 3.4882C19.3781 3.73323 19.5885 3.92542 19.8371 3.911C20.081 3.89659 20.2722 3.68519 20.2579 3.43535Z" fill="#1E282E" />
                        <path d="M22.5719 7.46159C22.5576 7.21656 22.3472 7.02437 22.0986 7.03879C21.85 7.0532 21.6635 7.2646 21.6778 7.51444C21.6922 7.75948 21.9026 7.95166 22.1512 7.93725C22.395 7.92283 22.5863 7.71143 22.5719 7.46159Z" fill="#1E282E" />
                        <path d="M24.6374 7.33665C24.623 7.09162 24.4127 6.89943 24.1641 6.91385C23.9202 6.92826 23.729 7.13966 23.7433 7.3895C23.7577 7.63454 23.968 7.82672 24.2166 7.81231C24.4605 7.7979 24.6517 7.58649 24.6374 7.33665Z" fill="#1E282E" />
                        <path d="M19.598 9.72937C19.6124 9.97441 19.4259 10.1906 19.1773 10.205C18.9335 10.2194 18.7183 10.0321 18.704 9.78222C18.6896 9.53719 18.8761 9.32098 19.1247 9.30656C19.3685 9.29215 19.5837 9.47953 19.598 9.72937Z" fill="#1E282E" />
                        <path d="M21.6635 9.60443C21.6779 9.84947 21.4914 10.0657 21.2428 10.0801C20.9989 10.0945 20.7838 9.90712 20.7695 9.65728C20.7551 9.40744 20.9416 9.19604 21.1902 9.18163C21.434 9.16721 21.6492 9.35459 21.6635 9.60443Z" fill="#1E282E" />
                        <path d="M23.729 9.47955C23.7433 9.72459 23.5568 9.9408 23.3082 9.95521C23.0644 9.96962 22.8492 9.78224 22.8349 9.5324C22.8205 9.28737 23.007 9.07116 23.2556 9.05675C23.4995 9.04233 23.7146 9.22971 23.729 9.47955Z" fill="#1E282E" />
                        <path d="M25.7992 9.35461C25.8136 9.59965 25.6271 9.81586 25.3785 9.83027C25.1346 9.84468 24.9195 9.65731 24.9051 9.40747C24.8908 9.16243 25.0773 8.94622 25.3259 8.93181C25.5697 8.9174 25.7849 9.10477 25.7992 9.35461Z" fill="#1E282E" />
                        <path d="M27.8647 9.22968C27.879 9.47471 27.6926 9.69092 27.444 9.70533C27.2001 9.71975 26.985 9.53237 26.9706 9.28253C26.9563 9.03749 27.1427 8.82128 27.3914 8.80687C27.6352 8.79246 27.8504 8.97984 27.8647 9.22968Z" fill="#1E282E" />
                        <path d="M29.9301 9.09998C29.9445 9.34501 29.758 9.56122 29.5094 9.57563C29.2656 9.59005 29.0504 9.40267 29.0361 9.15283C29.0217 8.90779 29.2082 8.69158 29.4568 8.67717C29.7006 8.66276 29.9158 8.85014 29.9301 9.09998Z" fill="#1E282E" />
                        <path d="M20.5065 7.59129C20.4921 7.34626 20.2818 7.15407 20.0331 7.16849C19.7893 7.1829 19.598 7.3943 19.6124 7.64414C19.6267 7.88918 19.8371 8.08136 20.0857 8.06695C20.3296 8.05253 20.5208 7.84113 20.5065 7.59129Z" fill="#1E282E" />
                        <path d="M26.7076 7.21177C26.6933 6.96674 26.4829 6.77456 26.2343 6.78897C25.9905 6.80338 25.7992 7.01479 25.8136 7.26463C25.8279 7.50966 26.0383 7.70185 26.2869 7.68743C26.5307 7.67302 26.722 7.46161 26.7076 7.21177Z" fill="#1E282E" />
                        <path d="M28.7731 7.08684C28.7587 6.8418 28.5484 6.64962 28.2998 6.66403C28.0511 6.67844 27.8647 6.88985 27.879 7.13969C27.8934 7.38953 28.1037 7.57691 28.3523 7.56249C28.601 7.54808 28.7874 7.33668 28.7731 7.08684Z" fill="#1E282E" />
                        <path d="M30.8386 6.9619C30.8242 6.71686 30.6138 6.52468 30.3652 6.53909C30.1214 6.5535 29.9301 6.76491 29.9445 7.01475C29.9588 7.25978 30.1692 7.45197 30.4178 7.43755C30.6617 7.42314 30.8529 7.21174 30.8386 6.9619Z" fill="#1E282E" />
                        <path d="M22.8206 11.6176C22.8062 11.3726 22.5958 11.1804 22.3472 11.1948C22.1034 11.2092 21.9121 11.4206 21.9265 11.6704C21.9408 11.9155 22.1512 12.1077 22.3998 12.0933C22.6437 12.0788 22.8349 11.8674 22.8206 11.6176Z" fill="#1E282E" />
                        <path d="M24.8908 11.4927C24.8765 11.2476 24.6661 11.0554 24.4175 11.0699C24.1736 11.0843 23.9824 11.2957 23.9967 11.5455C24.0111 11.7905 24.2214 11.9827 24.4701 11.9683C24.7139 11.9539 24.9052 11.7425 24.8908 11.4927Z" fill="#1E282E" />
                        <path d="M19.8466 13.8806C19.861 14.1256 19.6745 14.3418 19.4259 14.3562C19.1821 14.3706 18.9669 14.1832 18.9526 13.9334C18.9382 13.6884 19.1247 13.4722 19.3733 13.4577C19.6171 13.4433 19.8323 13.6307 19.8466 13.8806Z" fill="#1E282E" />
                        <path d="M21.9121 13.7556C21.9265 14.0007 21.74 14.2169 21.4914 14.2313C21.2475 14.2457 21.0324 14.0583 21.018 13.8085C21.0037 13.5634 21.1902 13.3472 21.4388 13.3328C21.6826 13.3184 21.8978 13.5058 21.9121 13.7556Z" fill="#1E282E" />
                        <path d="M23.9776 13.6307C23.992 13.8758 23.8055 14.092 23.5569 14.1064C23.313 14.1208 23.0979 13.9334 23.0835 13.6836C23.0692 13.4337 23.2557 13.2223 23.5043 13.2079C23.7529 13.1935 23.9633 13.3809 23.9776 13.6307Z" fill="#1E282E" />
                        <path d="M26.0479 13.5058C26.0622 13.7508 25.8757 13.967 25.6271 13.9815C25.3833 13.9959 25.1681 13.8085 25.1538 13.5586C25.1394 13.3136 25.3259 13.0974 25.5745 13.083C25.8184 13.0686 26.0335 13.256 26.0479 13.5058Z" fill="#1E282E" />
                        <path d="M28.1133 13.3809C28.1276 13.6259 27.9412 13.8421 27.6926 13.8565C27.4487 13.8709 27.2336 13.6836 27.2192 13.4337C27.2049 13.1887 27.3913 12.9725 27.64 12.9581C27.8838 12.9436 28.099 13.131 28.1133 13.3809Z" fill="#1E282E" />
                        <path d="M30.1788 13.256C30.1931 13.501 30.0067 13.7172 29.758 13.7316C29.5094 13.7461 29.2991 13.5587 29.2847 13.3088C29.2704 13.0638 29.4568 12.8476 29.7055 12.8332C29.9541 12.8188 30.1644 13.0061 30.1788 13.256Z" fill="#1E282E" />
                        <path d="M20.7551 11.7425C20.7407 11.4974 20.5304 11.3053 20.2817 11.3197C20.0331 11.3341 19.8467 11.5455 19.861 11.7953C19.8753 12.0452 20.0857 12.2325 20.3343 12.2181C20.583 12.2037 20.7694 11.9923 20.7551 11.7425Z" fill="#1E282E" />
                        <path d="M26.9562 11.3677C26.9419 11.1227 26.7315 10.9305 26.4829 10.9449C26.2391 10.9593 26.0478 11.1707 26.0622 11.4206C26.0765 11.6656 26.2869 11.8578 26.5355 11.8434C26.7841 11.829 26.9706 11.6176 26.9562 11.3677Z" fill="#1E282E" />
                        <path d="M29.0217 11.2428C29.0074 10.9978 28.797 10.8056 28.5484 10.82C28.3046 10.8344 28.1133 11.0459 28.1276 11.2957C28.142 11.5407 28.3524 11.7329 28.601 11.7185C28.8448 11.7041 29.0361 11.4927 29.0217 11.2428Z" fill="#1E282E" />
                        <path d="M31.0872 11.1179C31.0729 10.8729 30.8625 10.6807 30.6139 10.6951C30.37 10.7095 30.1788 10.9209 30.1931 11.1708C30.2075 11.4158 30.4179 11.608 30.6665 11.5936C30.9103 11.5791 31.1016 11.3677 31.0872 11.1179Z" fill="#1E282E" />
                        <path d="M31.747 4.82385C31.7614 5.06889 31.5749 5.2851 31.3263 5.29951C31.0824 5.31392 30.8673 5.12654 30.8529 4.8767C30.8386 4.63167 31.0251 4.41546 31.2737 4.40105C31.5175 4.38663 31.7327 4.57401 31.747 4.82385Z" fill="#1E282E" />
                        <path d="M31.9956 8.97504C32.01 9.22007 31.8235 9.43628 31.5749 9.45069C31.3263 9.46511 31.1159 9.27773 31.1015 9.02789C31.0872 8.77805 31.2737 8.56665 31.5223 8.55223C31.7709 8.53782 31.9813 8.7252 31.9956 8.97504Z" fill="#1E282E" />
                        <path d="M30.8386 6.9619C30.8242 6.71686 30.6138 6.52468 30.3652 6.53909C30.1214 6.5535 29.9301 6.76491 29.9445 7.01475C29.9588 7.25978 30.1692 7.45197 30.4178 7.43755C30.6617 7.42314 30.8529 7.21174 30.8386 6.9619Z" fill="#1E282E" />
                        <path d="M32.9041 6.83702C32.8897 6.59198 32.6793 6.3998 32.4307 6.41421C32.1869 6.42863 31.9956 6.64003 32.01 6.88987C32.0243 7.1349 32.2347 7.32709 32.4833 7.31268C32.7272 7.29826 32.9184 7.08686 32.9041 6.83702Z" fill="#1E282E" />
                        <path d="M32.2442 13.131C32.2586 13.3761 32.0721 13.5923 31.8235 13.6067C31.5796 13.6211 31.3645 13.4337 31.3501 13.1839C31.3358 12.9389 31.5223 12.7227 31.7709 12.7082C32.0147 12.6938 32.2299 12.8812 32.2442 13.131Z" fill="#1E282E" />
                        <path d="M31.0872 11.1179C31.0729 10.8729 30.8625 10.6807 30.6139 10.6951C30.37 10.7095 30.1788 10.9209 30.1931 11.1708C30.2075 11.4158 30.4179 11.608 30.6665 11.5936C30.9103 11.5791 31.1016 11.3677 31.0872 11.1179Z" fill="#1E282E" />
                        <path d="M33.1526 10.993C33.1383 10.7479 32.9279 10.5557 32.6793 10.5702C32.4355 10.5846 32.2442 10.796 32.2586 11.0458C32.2729 11.2908 32.4833 11.483 32.7319 11.4686C32.9757 11.4542 33.167 11.2428 33.1526 10.993Z" fill="#1E282E" />
                        <path d="M33.8125 4.69891C33.8268 4.94395 33.6403 5.16016 33.3917 5.17457C33.1479 5.18898 32.9327 5.00161 32.9184 4.75177C32.904 4.50673 33.0905 4.29052 33.3391 4.27611C33.5877 4.26169 33.7981 4.44907 33.8125 4.69891Z" fill="#1E282E" />
                        <path d="M34.0611 8.8501C34.0755 9.09513 33.889 9.31134 33.6404 9.32575C33.3965 9.34017 33.1814 9.15279 33.167 8.90295C33.1527 8.65791 33.3392 8.44171 33.5878 8.42729C33.8316 8.41288 34.0468 8.60026 34.0611 8.8501Z" fill="#1E282E" />
                        <path d="M34.9695 6.71208C34.9551 6.46704 34.7448 6.27486 34.4961 6.28927C34.2523 6.30369 34.0611 6.51509 34.0754 6.76493C34.0897 7.00997 34.3001 7.20215 34.5487 7.18774C34.7926 7.17332 34.9838 6.96192 34.9695 6.71208Z" fill="#1E282E" />
                        <path d="M34.3097 13.0061C34.3241 13.2511 34.1376 13.4673 33.889 13.4818C33.6451 13.4962 33.43 13.3088 33.4156 13.059C33.4013 12.8091 33.5878 12.5977 33.8364 12.5833C34.0802 12.5689 34.2954 12.7563 34.3097 13.0061Z" fill="#1E282E" />
                        <path d="M35.2182 10.8681C35.2038 10.6231 34.9934 10.4309 34.7448 10.4453C34.4962 10.4597 34.3097 10.6711 34.3241 10.9209C34.3384 11.166 34.5488 11.3582 34.7974 11.3437C35.0413 11.3293 35.2325 11.1179 35.2182 10.8681Z" fill="#1E282E" />
                        <path d="M35.8779 4.57404C35.8923 4.81907 35.7058 5.03528 35.4572 5.04969C35.2134 5.06411 34.9982 4.87673 34.9839 4.62689C34.9695 4.38185 35.156 4.16564 35.4046 4.15123C35.6485 4.13682 35.8636 4.3242 35.8779 4.57404Z" fill="#1E282E" />
                        <path d="M36.1265 8.72522C36.1409 8.97026 35.9544 9.18646 35.7058 9.20088C35.462 9.21529 35.2468 9.02791 35.2325 8.77807C35.2181 8.53304 35.4046 8.31683 35.6532 8.30241C35.897 8.288 36.1122 8.47538 36.1265 8.72522Z" fill="#1E282E" />
                    </g>
                    <g opacity="0.18">
                        <path d="M12.6892 35.5349C15.1372 28.8181 18.3501 22.3751 22.2515 16.7345V14.9664C17.2552 18.1422 10.2747 35.5397 10.2747 35.5397H12.6892V35.5349Z" fill="#1E282E" />
                    </g>
                    <g opacity="0.18">
                        <path d="M22.0316 45.1153L21.7735 42.9484C13.2247 44.0439 4.73815 43.8085 0.846274 43.6067C0.83193 44.2409 0.817587 44.8799 0.798462 45.5189C7.94631 46.1147 15.1563 46.0186 22.0316 45.1153Z" fill="#1E282E" />
                    </g>
                </g>
                <path d="M33.6069 55.8008C33.3582 38.9991 33.1096 22.1974 32.8658 5.39082C27.1427 4.97762 21.4627 5.54937 15.8544 6.56314C10.8867 15.5862 5.24496 25.4501 0.368164 35.6791C0.626347 38.0814 0.731533 41.2332 0.59766 45.4661C7.45864 46.6432 14.5204 46.6 21.4388 45.8889C21.4388 49.8095 21.4388 53.7348 20.9081 58.256C25.0007 57.641 29.0982 57.026 33.6116 55.8008H33.6069Z" stroke="#1E282E" stroke-width="1.53" stroke-linecap="round" stroke-linejoin="round" />
                <path d="M10.7481 8.97028C10.7481 8.97028 3.66718 21.5728 0.793701 28.2464" stroke="#1E282E" stroke-width="1.53" stroke-linecap="round" stroke-linejoin="round" />
                <path d="M11.647 36.1307C14.6974 30 17.7525 23.8645 21.0228 18.3536C21.0611 24.3786 21.0993 30.4084 21.1376 36.4334L11.647 36.1307Z" stroke="#1E282E" stroke-width="1.53" stroke-linecap="round" stroke-linejoin="round" />
                <path d="M23.1648 55.0897C25.7801 54.9888 28.3954 54.8879 31.0107 54.787V44.2505" stroke="#1E282E" stroke-width="0.77" stroke-linecap="round" stroke-linejoin="round" />
                <path d="M27.3531 54.9263C27.3866 52.918 29.0265 50.9769 31.0107 50.6694" stroke="#1E282E" stroke-width="0.77" stroke-linecap="round" stroke-linejoin="round" />
                <path d="M29.5764 52.894C29.2178 52.8027 28.8209 53.1583 28.8783 53.5282C28.9357 53.8982 29.4186 54.1192 29.7341 53.9222C30.0497 53.7252 30.131 53.0381 29.5764 52.894Z" stroke="#1E282E" stroke-width="0.77" stroke-linecap="round" stroke-linejoin="round" />
                <path d="M10.0309 57.2037C9.39501 56.7184 8.48659 56.8433 8.00369 57.4824C7.52079 58.1214 7.6451 59.0342 8.281 59.5195C8.9169 60.0048 9.82532 59.8799 10.3082 59.2408C10.7911 58.6018 10.6668 57.6889 10.0309 57.2037Z" stroke="#1E282E" stroke-width="0.77" stroke-linecap="round" stroke-linejoin="round" />
                <path d="M8.45312 51.5583C7.76941 51.0394 6.79883 51.1691 6.27769 51.8562C5.76132 52.5432 5.89041 53.5186 6.57412 54.0423C7.25783 54.5612 8.2284 54.4314 8.74955 53.7444C9.26592 53.0573 9.13683 52.082 8.45312 51.5583Z" stroke="#1E282E" stroke-width="0.77" stroke-linecap="round" stroke-linejoin="round" />
                <path d="M14.8121 53.288C14.1762 52.8027 13.2678 52.9276 12.7849 53.5666C12.302 54.2057 12.4263 55.1185 13.0622 55.6038C13.6981 56.0891 14.6065 55.9641 15.0894 55.3251C15.5723 54.6861 15.448 53.7732 14.8121 53.288Z" stroke="#1E282E" stroke-width="0.77" stroke-linecap="round" stroke-linejoin="round" />
                <path d="M12.5314 54.0855L8.23315 52.9852" stroke="#1E282E" stroke-width="0.77" stroke-linecap="round" stroke-linejoin="round" />
                <path d="M10.2747 57.4439L13.4877 54.8158" stroke="#1E282E" stroke-width="0.77" stroke-linecap="round" stroke-linejoin="round" />
            </g>
            <defs>
                <filter id="filter0_d_0_313" x="0.798462" y="3.76263" width="37.6713" height="56.3988" filterUnits="userSpaceOnUse" color-interpolation-filters="sRGB">
                    <feFlood flood-opacity="0" result="BackgroundImageFix" />
                    <feColorMatrix in="SourceAlpha" type="matrix" values="0 0 0 0 0 0 0 0 0 0 0 0 0 0 0 0 0 0 127 0" result="hardAlpha" />
                    <feOffset dx="3.07" dy="3.07" />
                    <feColorMatrix type="matrix" values="0 0 0 0 0.478431 0 0 0 0 0.486275 0 0 0 0 0.490196 0 0 0 1 0" />
                    <feBlend mode="normal" in2="BackgroundImageFix" result="effect1_dropShadow_0_313" />
                    <feBlend mode="normal" in="SourceGraphic" in2="effect1_dropShadow_0_313" result="shape" />
                </filter>
                <clipPath id="clip0_0_313">
                    <rect width="39" height="60" fill="white" />
                </clipPath>
            </defs>
        </svg>
