<svg xmlns="http://www.w3.org/2000/svg" xmlns:inkscape="http://www.inkscape.org/namespaces/inkscape" xmlns:sodipodi="http://sodipodi.sourceforge.net/DTD/sodipodi-0.dtd" width="64px" height="64px" inkscape:version="1.3.2 (1:1.3.2+202311252150+091e20ef0f)" sodipodi:docname="gigashare.svg" version="1.1" viewBox="0 0 32 32">
 
 <g inkscape:groupmode="layer" inkscape:label="Layer 1">
  <g transform="matrix(1.6728 0 0 1.6728 -139.02 -140.18)">
   <g stroke-width=".26458">
    <path d="m89.685 84.603-2.2083 1.4617c0.03455 0.02031 0.06908 0.04061 0.10319 0.06325l2.6636 1.7632c1.2551 0.83074 1.2551 2.6741 0 3.5047l-0.45548 0.30152c1.3827 0.81058 3.1552-0.18169 3.1552-1.8156v-3.5264c1.59e-4 -1.6748-1.8624-2.6763-3.2583-1.7525z" fill="#0096d9"/>
    <path d="m87.021 89.871c-1.2551-0.83074-1.2551-2.6741 0-3.5047l0.45551-0.30152c-1.3829-0.81042-3.1554 0.18184-3.1554 1.8157v3.5261c0 1.6748 1.8625 2.6763 3.2583 1.7523l2.2082-1.4616c-0.03455-0.02032-0.06908-0.04061-0.10319-0.06326l-2.6636-1.763z" fill="#00bbc1"/>
    <path d="m90.244 87.89-2.6636-1.7632c-0.0341-0.02248-0.06863-0.04294-0.10319-0.06325l-0.45548 0.30152c-1.2551 0.83074-1.2551 2.6741 0 3.5047l2.6638 1.7632c0.03408 0.02246 0.06863 0.04294 0.10316 0.06324l0.45551-0.30149c1.2551-0.83074 1.2551-2.6741-1.58e-4 -3.5047z" fill="#314cb8"/>
   </g>
   
  </g>
 </g>
</svg>