<svg xmlns="http://www.w3.org/2000/svg" width="25" height="25" viewBox="0 0 25 25" fill="none">
  <path d="M11.4486 17.2795C11.3174 17.2798 11.1873 17.2542 11.066 17.204C10.9447 17.1539 10.8345 17.0804 10.7416 16.9875L6.49963 12.7445C6.40406 12.6524 6.3278 12.5421 6.27531 12.4201C6.22282 12.2981 6.19514 12.1669 6.19389 12.0342C6.19264 11.9014 6.21785 11.7697 6.26805 11.6468C6.31824 11.5238 6.39242 11.4121 6.48624 11.3182C6.58007 11.2242 6.69166 11.1499 6.81452 11.0995C6.93738 11.0491 7.06904 11.0237 7.20182 11.0248C7.3346 11.0259 7.46584 11.0534 7.58788 11.1057C7.70992 11.158 7.82032 11.2341 7.91263 11.3295L11.4476 14.8645L17.8126 8.50155C18.0001 8.31391 18.2545 8.20844 18.5198 8.20834C18.7851 8.20825 19.0395 8.31354 19.2271 8.50105C19.4148 8.68855 19.5202 8.94292 19.5203 9.20819C19.5204 9.47346 19.4151 9.72791 19.2276 9.91555L12.1556 16.9875C12.0628 17.0804 11.9526 17.1539 11.8313 17.204C11.7099 17.2542 11.5799 17.2798 11.4486 17.2795Z" fill="#2FAB73"/>
</svg>